if (_typeface_js && _typeface_js.loadFace) _typeface_js.loadFace({"glyphs":{"0":{"ha":950,"x_min":68,"x_max":882,"o":"m 882 374 l 882 374 l 882 119 l 763 1 l 186 0 l 68 119 l 68 831 l 186 949 l 763 949 l 882 831 l 882 374 m 610 712 l 339 712 l 339 237 l 610 238 l 610 712 z "},"1":{"ha":543,"x_min":68,"x_max":475,"o":"m 475 949 l 475 0 l 203 0 l 203 712 l 68 712 l 68 949 l 475 949 z "},"2":{"ha":949,"x_min":68,"x_max":882,"o":"m 610 593 l 610 712 l 68 712 l 68 831 l 186 949 l 763 949 l 882 831 l 882 475 l 763 356 l 339 356 l 339 237 l 882 237 l 882 0 l 68 0 l 68 475 l 186 593 l 610 593 z "},"3":{"ha":949,"x_min":68,"x_max":882,"o":"m 271 356 l 271 593 l 610 594 l 610 712 l 68 712 l 68 949 l 763 949 l 882 831 l 882 543 l 814 475 l 882 407 l 882 119 l 763 1 l 68 0 l 68 237 l 610 238 l 610 356 l 271 356 z "},"4":{"ha":949,"x_min":68,"x_max":882,"o":"m 610 475 l 610 949 l 882 949 l 882 1 l 610 1 l 610 237 l 68 237 l 68 949 l 339 949 l 339 475 l 610 475 z "},"5":{"ha":949,"x_min":68,"x_max":882,"o":"m 68 356 l 68 949 l 882 949 l 882 712 l 339 712 l 339 593 l 763 593 l 882 475 l 882 119 l 763 0 l 186 0 l 68 119 l 68 237 l 610 237 l 610 356 l 68 356 z "},"6":{"ha":949,"x_min":68,"x_max":882,"o":"m 339 356 l 339 237 l 610 237 l 610 356 l 339 356 m 68 831 l 186 949 l 882 949 l 882 712 l 339 712 l 339 593 l 763 593 l 882 475 l 882 119 l 763 0 l 186 0 l 68 119 l 68 831 z "},"7":{"ha":882,"x_min":34,"x_max":814,"o":"m 814 848 l 814 848 l 322 0 l 34 0 l 447 712 l 68 712 l 68 949 l 814 949 l 814 848 z "},"8":{"ha":949,"x_min":68,"x_max":882,"o":"m 339 237 l 610 238 l 610 356 l 339 356 l 339 237 m 339 712 l 339 593 l 610 594 l 610 712 l 339 712 m 68 119 l 68 408 l 136 475 l 68 543 l 68 831 l 187 949 l 763 949 l 882 831 l 882 543 l 814 475 l 882 407 l 882 119 l 763 1 l 186 0 l 68 119 z "},"9":{"ha":949,"x_min":68,"x_max":882,"o":"m 610 593 l 610 712 l 339 712 l 339 593 l 610 593 m 882 119 l 764 0 l 68 0 l 68 237 l 610 237 l 610 356 l 186 356 l 68 475 l 68 831 l 186 949 l 763 949 l 882 831 l 882 119 z "},"\u0000":{"ha":68,"x_min":0,"x_max":0,"o":""}," ":{"ha":543,"x_min":0,"x_max":0,"o":""},"!":{"ha":407,"x_min":68,"x_max":339,"o":"m 68 237 l 339 237 l 339 0 l 68 0 l 68 237 m 339 305 l 68 305 l 68 949 l 339 949 l 339 305 z "},"\"":{"ha":746,"x_min":68,"x_max":678,"o":"m 68 949 l 339 949 l 339 695 l 220 576 l 68 576 l 68 949 m 407 949 l 678 949 l 678 695 l 559 576 l 407 576 l 407 949 z "},"#":{"ha":949,"x_min":68,"x_max":882,"o":"m 136 119 l 68 119 l 68 356 l 136 356 l 136 593 l 68 593 l 68 831 l 136 831 l 136 949 l 407 949 l 407 831 l 543 831 l 543 949 l 814 949 l 814 831 l 882 831 l 881 593 l 814 593 l 814 356 l 882 356 l 881 119 l 814 119 l 814 0 l 543 0 l 543 119 l 407 119 l 407 0 l 136 0 l 136 119 m 407 356 l 543 356 l 543 593 l 407 593 l 407 356 z "},"$":{"ha":949,"x_min":68,"x_max":882,"o":"m 610 68 l 610 0 l 339 0 l 339 68 l 68 68 l 68 305 l 610 305 l 610 356 l 186 356 l 68 475 l 68 763 l 186 882 l 339 882 l 339 949 l 610 949 l 610 882 l 882 882 l 882 644 l 339 644 l 339 593 l 763 593 l 882 475 l 882 186 l 763 68 l 610 68 z "},"%":{"ha":1221,"x_min":68,"x_max":1153,"o":"m 475 712 l 340 712 l 339 593 l 474 594 l 475 712 m 882 356 l 747 356 l 746 237 l 881 238 l 882 356 m 837 593 l 1034 593 l 1153 475 l 1152 119 l 1034 1 l 593 0 l 539 54 l 509 0 l 220 0 l 418 357 l 186 356 l 68 475 l 68 831 l 186 949 l 627 949 l 704 873 l 746 949 l 1034 949 l 837 593 z "},"&":{"ha":949,"x_min":68,"x_max":882,"o":"m 339 237 l 475 238 l 475 356 l 339 356 l 339 237 m 339 712 l 339 593 l 475 594 l 475 712 l 339 712 m 694 68 l 627 1 l 186 0 l 68 119 l 68 408 l 136 475 l 68 543 l 68 831 l 187 949 l 627 949 l 746 831 l 746 593 l 882 593 l 882 356 l 746 356 l 746 237 l 882 237 l 882 0 l 763 0 l 695 68 l 694 68 z "},"'":{"ha":407,"x_min":68,"x_max":339,"o":"m 68 949 l 339 949 l 339 695 l 220 576 l 68 576 l 68 949 z "},"(":{"ha":678,"x_min":68,"x_max":610,"o":"m 68 899 l 186 1017 l 610 1017 l 610 780 l 339 780 l 339 170 l 610 170 l 610 -68 l 186 -68 l 68 51 l 68 899 z "},")":{"ha":678,"x_min":68,"x_max":610,"o":"m 610 51 l 492 -68 l 68 -68 l 68 170 l 339 170 l 339 780 l 68 780 l 68 1017 l 492 1017 l 610 899 l 610 51 z "},"*":{"ha":1170,"x_min":68,"x_max":1102,"o":"m 585 393 l 397 136 l 178 295 l 352 534 l 68 627 l 151 884 l 449 787 l 449 1085 l 721 1085 l 721 787 l 1019 884 l 1102 627 l 818 534 l 991 295 l 772 136 l 585 393 z "},"+":{"ha":882,"x_min":68,"x_max":814,"o":"m 305 356 l 68 356 l 68 593 l 305 593 l 305 848 l 576 848 l 576 593 l 814 593 l 813 356 l 576 356 l 576 102 l 305 102 l 305 356 z "},",":{"ha":407,"x_min":68,"x_max":339,"o":"m 68 237 l 339 237 l 339 -17 l 220 -136 l 68 -136 l 68 237 z "},"-":{"ha":882,"x_min":68,"x_max":814,"o":"m 68 356 l 68 593 l 814 593 l 813 356 l 68 356 z "},".":{"ha":407,"x_min":68,"x_max":339,"o":"m 68 237 l 339 237 l 339 0 l 68 0 l 68 237 z "},"/":{"ha":916,"x_min":34,"x_max":848,"o":"m 559 949 l 848 949 l 322 0 l 34 0 l 559 949 z "},":":{"ha":407,"x_min":68,"x_max":339,"o":"m 68 237 l 339 237 l 339 0 l 68 0 l 68 237 m 68 593 l 339 593 l 339 356 l 68 356 l 68 593 z "},";":{"ha":407,"x_min":68,"x_max":339,"o":"m 68 593 l 339 593 l 339 356 l 68 356 l 68 593 m 68 237 l 339 237 l 339 -17 l 220 -136 l 68 -136 l 68 237 z "},"<":{"ha":882,"x_min":68,"x_max":814,"o":"m 68 610 l 814 882 l 814 644 l 371 484 l 814 322 l 813 85 l 68 356 l 68 610 z "},"=":{"ha":882,"x_min":68,"x_max":814,"o":"m 68 543 l 68 780 l 814 780 l 813 543 l 68 543 m 68 170 l 68 407 l 814 407 l 813 170 l 68 170 z "},">":{"ha":882,"x_min":68,"x_max":814,"o":"m 814 356 l 69 85 l 68 322 l 511 484 l 68 644 l 68 882 l 814 610 l 814 356 z "},"?":{"ha":949,"x_min":68,"x_max":882,"o":"m 610 593 l 610 712 l 68 712 l 68 949 l 763 949 l 882 831 l 882 475 l 763 356 l 509 356 l 509 305 l 237 305 l 237 475 l 356 593 l 610 593 m 237 237 l 509 237 l 509 0 l 237 0 l 237 237 z "},"@":{"ha":949,"x_min":68,"x_max":882,"o":"m 882 475 l 763 356 l 458 356 l 339 475 l 339 237 l 882 237 l 882 0 l 186 0 l 68 119 l 68 831 l 186 949 l 763 949 l 882 831 l 882 475 m 339 593 l 610 593 l 610 712 l 339 712 l 339 593 z "},"A":{"ha":1085,"x_min":34,"x_max":1017,"o":"m 522 712 l 250 712 l 322 949 l 729 949 l 1017 0 l 746 0 l 674 237 l 377 237 l 305 0 l 34 0 l 235 661 l 506 661 l 450 475 l 602 475 l 526 726 l 522 712 z "},"B":{"ha":949,"x_min":68,"x_max":882,"o":"m 339 237 l 610 238 l 610 356 l 339 356 l 339 237 m 68 712 l 68 949 l 763 949 l 882 831 l 882 543 l 814 475 l 882 407 l 882 119 l 763 1 l 68 0 l 68 661 l 339 661 l 339 593 l 610 594 l 610 712 l 68 712 z "},"C":{"ha":950,"x_min":68,"x_max":882,"o":"m 68 712 l 68 831 l 186 949 l 763 949 l 882 831 l 882 576 l 610 577 l 610 712 l 68 712 m 339 661 l 339 237 l 610 238 l 610 374 l 882 374 l 882 119 l 763 1 l 186 0 l 68 119 l 68 661 l 339 661 z "},"D":{"ha":949,"x_min":68,"x_max":882,"o":"m 68 712 l 68 949 l 763 949 l 882 831 l 882 119 l 763 1 l 68 0 l 68 661 l 339 661 l 339 237 l 610 238 l 610 712 l 68 712 z "},"E":{"ha":882,"x_min":68,"x_max":814,"o":"m 68 712 l 68 949 l 814 949 l 814 712 l 68 712 m 339 661 l 339 593 l 611 593 l 610 356 l 339 356 l 339 237 l 814 237 l 814 0 l 68 0 l 68 661 l 339 661 z "},"F":{"ha":882,"x_min":68,"x_max":814,"o":"m 68 712 l 68 949 l 814 949 l 814 712 l 68 712 m 339 661 l 339 593 l 611 593 l 610 356 l 339 356 l 339 0 l 68 0 l 68 661 l 339 661 z "},"G":{"ha":949,"x_min":68,"x_max":882,"o":"m 339 661 l 339 237 l 610 237 l 610 356 l 475 356 l 475 593 l 882 593 l 882 119 l 763 0 l 186 0 l 68 119 l 68 661 l 339 661 m 68 712 l 68 831 l 186 949 l 882 949 l 882 712 l 68 712 z "},"H":{"ha":949,"x_min":68,"x_max":882,"o":"m 559 356 l 339 356 l 339 0 l 68 0 l 68 949 l 339 949 l 339 593 l 559 593 l 559 356 m 610 949 l 882 949 l 882 1 l 610 1 l 610 949 z "},"I":{"ha":407,"x_min":68,"x_max":339,"o":"m 339 0 l 68 0 l 68 949 l 339 949 l 339 0 z "},"J":{"ha":949,"x_min":68,"x_max":882,"o":"m 610 949 l 882 949 l 882 119 l 763 1 l 186 0 l 68 119 l 68 373 l 339 373 l 339 237 l 610 238 l 610 949 z "},"K":{"ha":983,"x_min":68,"x_max":916,"o":"m 539 564 l 916 0 l 610 0 l 365 368 l 339 339 l 339 0 l 68 0 l 68 949 l 339 949 l 339 644 l 423 739 l 539 564 m 452 772 l 610 949 l 882 949 l 568 597 l 452 772 z "},"L":{"ha":950,"x_min":68,"x_max":882,"o":"m 68 949 l 339 949 l 339 237 l 882 237 l 882 0 l 68 0 l 68 949 z "},"M":{"ha":1221,"x_min":68,"x_max":1153,"o":"m 636 475 l 780 949 l 1153 949 l 1153 0 l 882 0 l 882 391 l 772 28 l 636 475 m 729 0 l 458 0 l 339 391 l 339 0 l 68 0 l 68 949 l 441 949 l 610 391 l 729 0 z "},"N":{"ha":1153,"x_min":68,"x_max":1085,"o":"m 68 712 l 68 949 l 492 949 l 814 368 l 814 949 l 1085 949 l 1085 0 l 729 0 l 339 712 l 68 712 m 339 661 l 339 0 l 68 0 l 68 661 l 339 661 z "},"O":{"ha":949,"x_min":68,"x_max":882,"o":"m 68 712 l 68 831 l 186 949 l 763 949 l 882 831 l 882 119 l 763 1 l 186 0 l 68 119 l 68 661 l 339 661 l 339 237 l 610 238 l 610 712 l 68 712 z "},"P":{"ha":949,"x_min":68,"x_max":882,"o":"m 68 712 l 68 949 l 763 949 l 882 831 l 882 475 l 763 357 l 339 356 l 339 0 l 68 0 l 68 661 l 339 661 l 339 593 l 610 594 l 610 712 l 68 712 z "},"Q":{"ha":949,"x_min":68,"x_max":916,"o":"m 610 593 l 610 712 l 68 712 l 68 831 l 186 949 l 763 949 l 882 831 l 882 119 l 871 109 l 916 0 l 186 0 l 68 119 l 68 661 l 339 661 l 339 237 l 515 238 l 373 593 l 610 593 z "},"R":{"ha":949,"x_min":68,"x_max":916,"o":"m 68 712 l 68 949 l 763 949 l 882 831 l 882 475 l 773 367 l 916 0 l 610 0 l 473 356 l 339 356 l 339 0 l 68 0 l 68 661 l 339 661 l 339 593 l 610 594 l 610 712 l 68 712 z "},"S":{"ha":949,"x_min":68,"x_max":882,"o":"m 339 661 l 339 593 l 763 593 l 882 475 l 882 119 l 763 0 l 68 0 l 68 237 l 610 237 l 610 356 l 186 356 l 68 475 l 68 661 l 339 661 m 68 712 l 68 831 l 186 949 l 882 949 l 882 712 l 68 712 z "},"T":{"ha":949,"x_min":68,"x_max":882,"o":"m 68 712 l 68 949 l 882 949 l 882 712 l 68 712 m 610 661 l 610 1 l 339 1 l 339 661 l 610 661 z "},"U":{"ha":949,"x_min":68,"x_max":882,"o":"m 610 949 l 882 949 l 882 119 l 763 1 l 186 0 l 68 119 l 68 949 l 339 949 l 339 237 l 610 238 l 610 949 z "},"V":{"ha":1051,"x_min":34,"x_max":983,"o":"m 517 307 l 712 949 l 983 949 l 695 0 l 610 0 l 517 307 m 593 0 l 322 0 l 34 949 l 305 949 l 526 223 l 593 0 z "},"W":{"ha":1255,"x_min":34,"x_max":1187,"o":"m 509 0 l 237 0 l 34 949 l 305 949 l 383 585 l 383 585 l 509 0 m 411 694 l 475 949 l 746 949 l 838 585 l 916 949 l 1187 949 l 983 0 l 712 0 l 610 407 l 536 110 l 411 694 z "},"X":{"ha":916,"x_min":34,"x_max":848,"o":"m 848 0 l 559 0 l 441 214 l 322 0 l 34 0 l 297 475 l 34 949 l 322 949 l 848 0 m 466 781 l 559 949 l 848 949 l 610 520 l 466 781 z "},"Y":{"ha":916,"x_min":34,"x_max":848,"o":"m 584 473 l 576 459 l 576 0 l 305 0 l 305 459 l 34 949 l 322 949 l 584 473 m 466 780 l 559 949 l 848 949 l 609 519 l 466 780 z "},"Z":{"ha":882,"x_min":68,"x_max":814,"o":"m 725 661 l 407 237 l 814 237 l 814 0 l 68 0 l 68 170 l 437 661 l 725 661 m 68 712 l 68 949 l 814 949 l 814 780 l 763 712 l 68 712 z "},"[":{"ha":678,"x_min":68,"x_max":610,"o":"m 68 1017 l 610 1017 l 610 780 l 339 780 l 339 170 l 610 170 l 610 -68 l 68 -68 l 68 1017 z "},"\\":{"ha":916,"x_min":34,"x_max":848,"o":"m 848 0 l 559 0 l 34 949 l 322 949 l 848 0 z "},"]":{"ha":678,"x_min":68,"x_max":610,"o":"m 610 -68 l 68 -68 l 68 170 l 339 170 l 339 780 l 68 780 l 68 1017 l 610 1017 l 610 -68 z "},"^":{"ha":848,"x_min":68,"x_max":780,"o":"m 576 1441 l 780 1068 l 509 1068 l 424 1223 l 339 1068 l 68 1068 l 271 1441 l 576 1441 z "},"_":{"ha":882,"x_min":68,"x_max":814,"o":"m 68 -305 l 68 -68 l 814 -68 l 813 -305 l 68 -305 z "},"`":{"ha":610,"x_min":68,"x_max":543,"o":"m 68 1441 l 339 1441 l 543 1068 l 271 1068 l 68 1441 z "},"a":{"ha":1085,"x_min":34,"x_max":1017,"o":"m 377 237 l 305 0 l 34 0 l 322 949 l 729 949 l 1017 0 l 746 0 l 674 237 l 377 237 m 526 726 l 450 475 l 602 475 l 526 726 z "},"b":{"ha":949,"x_min":68,"x_max":882,"o":"m 339 593 l 610 594 l 610 712 l 339 712 l 339 593 m 339 237 l 610 238 l 610 356 l 339 356 l 339 237 m 68 949 l 763 949 l 882 831 l 882 543 l 814 475 l 882 407 l 882 119 l 763 1 l 68 0 l 68 949 z "},"c":{"ha":950,"x_min":68,"x_max":882,"o":"m 186 949 l 763 949 l 882 831 l 882 576 l 610 577 l 610 712 l 339 712 l 339 237 l 610 238 l 610 374 l 882 374 l 882 119 l 763 1 l 186 0 l 68 119 l 68 831 l 186 949 z "},"d":{"ha":949,"x_min":68,"x_max":882,"o":"m 882 119 l 763 1 l 68 0 l 68 949 l 763 949 l 882 831 l 882 119 m 610 712 l 339 712 l 339 237 l 610 238 l 610 712 z "},"e":{"ha":882,"x_min":68,"x_max":814,"o":"m 68 949 l 814 949 l 814 712 l 339 712 l 339 593 l 611 593 l 610 356 l 339 356 l 339 237 l 814 237 l 814 0 l 68 0 l 68 949 z "},"f":{"ha":882,"x_min":68,"x_max":814,"o":"m 68 949 l 814 949 l 814 712 l 339 712 l 339 593 l 611 593 l 610 356 l 339 356 l 339 0 l 68 0 l 68 949 z "},"g":{"ha":949,"x_min":68,"x_max":882,"o":"m 882 119 l 763 0 l 186 0 l 68 119 l 68 831 l 186 949 l 882 949 l 882 712 l 339 712 l 339 237 l 610 237 l 610 356 l 475 356 l 475 593 l 882 593 l 882 119 z "},"h":{"ha":949,"x_min":68,"x_max":882,"o":"m 610 593 l 610 949 l 882 949 l 882 1 l 610 1 l 610 356 l 339 356 l 339 0 l 68 0 l 68 949 l 339 949 l 339 593 l 610 593 z "},"i":{"ha":407,"x_min":68,"x_max":339,"o":"m 339 0 l 68 0 l 68 949 l 339 949 l 339 0 z "},"j":{"ha":949,"x_min":68,"x_max":882,"o":"m 610 949 l 882 949 l 882 119 l 763 1 l 186 0 l 68 119 l 68 373 l 339 373 l 339 237 l 610 238 l 610 949 z "},"k":{"ha":983,"x_min":68,"x_max":916,"o":"m 539 564 l 916 0 l 610 0 l 365 368 l 339 339 l 339 0 l 68 0 l 68 949 l 339 949 l 339 644 l 610 949 l 882 949 l 539 564 z "},"l":{"ha":950,"x_min":68,"x_max":882,"o":"m 68 949 l 339 949 l 339 237 l 882 237 l 882 0 l 68 0 l 68 949 z "},"m":{"ha":1221,"x_min":68,"x_max":1153,"o":"m 1153 949 l 1153 0 l 882 0 l 882 391 l 763 0 l 458 0 l 339 391 l 339 0 l 68 0 l 68 949 l 441 949 l 610 391 l 780 949 l 1153 949 z "},"n":{"ha":1153,"x_min":68,"x_max":1085,"o":"m 339 705 l 339 0 l 68 0 l 68 949 l 492 949 l 814 368 l 814 949 l 1085 949 l 1085 0 l 729 0 l 339 705 z "},"o":{"ha":949,"x_min":68,"x_max":882,"o":"m 882 119 l 763 1 l 186 0 l 68 119 l 68 831 l 186 949 l 763 949 l 882 831 l 882 119 m 610 712 l 339 712 l 339 237 l 610 238 l 610 712 z "},"p":{"ha":949,"x_min":68,"x_max":882,"o":"m 68 949 l 763 949 l 882 831 l 882 475 l 763 357 l 339 356 l 339 0 l 68 0 l 68 949 m 339 593 l 610 594 l 610 712 l 339 712 l 339 593 z "},"q":{"ha":949,"x_min":68,"x_max":916,"o":"m 339 712 l 339 237 l 515 238 l 373 593 l 610 593 l 610 712 l 339 712 m 68 831 l 186 949 l 763 949 l 882 831 l 882 119 l 871 109 l 916 0 l 186 0 l 68 119 l 68 831 z "},"r":{"ha":949,"x_min":68,"x_max":916,"o":"m 339 593 l 610 594 l 610 712 l 339 712 l 339 593 m 473 356 l 339 356 l 339 0 l 68 0 l 68 949 l 763 949 l 882 831 l 882 475 l 773 367 l 916 0 l 610 0 l 473 356 z "},"s":{"ha":949,"x_min":68,"x_max":882,"o":"m 186 356 l 68 475 l 68 831 l 186 949 l 882 949 l 882 712 l 339 712 l 339 593 l 763 593 l 882 475 l 882 119 l 763 0 l 68 0 l 68 237 l 610 237 l 610 356 l 186 356 z "},"t":{"ha":949,"x_min":68,"x_max":882,"o":"m 610 712 l 610 1 l 339 1 l 339 712 l 68 712 l 68 949 l 882 949 l 882 712 l 610 712 z "},"u":{"ha":949,"x_min":68,"x_max":882,"o":"m 610 949 l 882 949 l 882 119 l 763 1 l 186 0 l 68 119 l 68 949 l 339 949 l 339 237 l 610 238 l 610 949 z "},"v":{"ha":1085,"x_min":34,"x_max":1017,"o":"m 746 949 l 1017 949 l 729 0 l 322 0 l 34 949 l 305 949 l 526 223 l 746 949 z "},"w":{"ha":1255,"x_min":34,"x_max":1187,"o":"m 237 0 l 34 949 l 305 949 l 383 585 l 475 949 l 746 949 l 838 585 l 916 949 l 1187 949 l 983 0 l 712 0 l 610 407 l 509 0 l 237 0 z "},"x":{"ha":916,"x_min":34,"x_max":848,"o":"m 441 735 l 559 949 l 848 949 l 585 475 l 848 0 l 559 0 l 441 214 l 322 0 l 34 0 l 297 475 l 34 949 l 322 949 l 441 735 z "},"y":{"ha":916,"x_min":34,"x_max":848,"o":"m 305 459 l 34 949 l 322 949 l 441 735 l 559 949 l 848 949 l 576 459 l 576 0 l 305 0 l 305 459 z "},"z":{"ha":882,"x_min":68,"x_max":814,"o":"m 475 712 l 68 712 l 68 949 l 814 949 l 814 780 l 407 237 l 814 237 l 814 0 l 68 0 l 68 170 l 475 712 z "},"{":{"ha":1051,"x_min":68,"x_max":983,"o":"m 685 678 l 678 644 l 882 729 l 888 763 l 685 678 m 180 682 l 186 648 l 390 563 l 383 597 l 180 682 m 163 763 l 170 729 l 373 644 l 366 678 l 163 763 m 668 597 l 661 563 l 865 648 l 871 682 l 668 597 m 899 153 l 729 85 l 729 373 l 831 441 l 848 526 l 916 559 l 899 153 m 186 899 l 214 790 l 407 695 l 441 526 l 254 526 l 122 600 l 68 899 l 186 899 m 526 661 l 610 695 l 576 509 l 576 237 l 475 237 l 475 509 l 441 695 l 526 661 m 136 559 l 203 526 l 220 441 l 322 373 l 322 85 l 153 153 l 136 559 m 610 207 l 610 441 l 695 373 l 695 68 l 651 41 l 617 159 l 434 159 l 400 41 l 356 68 l 356 373 l 441 441 l 441 207 l 610 207 m 597 129 l 631 0 l 420 0 l 454 129 l 597 129 m 543 949 q 831 882 712 949 l 814 814 q 526 695 761 785 q 237 814 290 785 l 220 882 q 509 949 339 949 l 543 949 m 526 780 l 627 838 q 543 865 593 865 l 509 865 q 424 838 458 865 l 526 780 m 983 899 l 929 600 l 797 526 l 610 526 l 644 695 l 838 790 l 865 899 l 983 899 z "},"|":{"ha":407,"x_min":68,"x_max":339,"o":"m 339 -136 l 68 -136 l 68 1085 l 339 1085 l 339 -136 z "},"}":{"ha":1085,"x_min":68,"x_max":1017,"o":"m 604 434 l 661 305 l 848 509 l 848 519 l 604 434 m 237 519 l 237 509 l 424 305 l 481 434 l 237 519 m 916 153 l 593 0 l 949 492 l 916 153 m 543 458 l 661 559 l 865 631 l 872 671 l 671 604 l 678 661 l 882 726 l 888 770 l 688 705 l 695 763 l 932 848 l 1017 949 l 966 577 l 543 0 l 119 577 l 68 949 l 153 848 l 390 763 l 397 705 l 197 770 l 203 726 l 407 661 l 414 604 l 213 671 l 220 631 l 424 559 l 543 458 m 136 492 l 492 0 l 169 153 l 136 492 m 593 831 l 678 983 l 627 576 l 545 507 l 543 509 l 540 507 l 458 576 l 407 983 l 492 831 l 593 831 m 543 610 l 586 747 l 499 747 l 543 610 z "},"~":{"ha":882,"x_min":68,"x_max":814,"o":"m 339 1136 l 339 1068 l 68 1068 l 68 1255 l 186 1373 l 543 1373 l 543 1441 l 814 1441 l 814 1255 l 695 1136 l 339 1136 z "},"¡":{"ha":407,"x_min":68,"x_max":339,"o":"m 339 712 l 68 712 l 68 949 l 339 949 l 339 712 m 68 644 l 339 644 l 339 0 l 68 0 l 68 644 z "},"¢":{"ha":950,"x_min":68,"x_max":882,"o":"m 610 68 l 610 0 l 339 0 l 339 68 l 186 68 l 68 186 l 68 763 l 186 882 l 339 882 l 339 949 l 610 949 l 610 882 l 763 882 l 882 763 l 882 576 l 610 577 l 610 644 l 339 644 l 339 305 l 610 306 l 610 374 l 882 374 l 882 187 l 763 68 l 610 68 z "},"£":{"ha":882,"x_min":68,"x_max":814,"o":"m 170 356 l 68 356 l 68 593 l 170 593 l 170 831 l 288 949 l 712 949 l 814 848 l 814 712 l 441 712 l 441 593 l 610 593 l 610 356 l 441 356 l 441 237 l 814 237 l 814 0 l 68 0 l 68 237 l 170 237 l 170 356 z "},"¤":{"ha":882,"x_min":68,"x_max":814,"o":"m 475 508 l 407 509 l 407 441 l 475 441 l 475 508 m 184 675 l 68 882 l 356 882 l 435 746 l 447 745 l 526 882 l 814 882 l 698 675 l 746 627 l 746 322 l 698 274 l 814 68 l 526 68 l 447 203 l 435 203 l 356 68 l 68 68 l 184 274 l 136 322 l 136 627 l 184 675 z "},"¥":{"ha":916,"x_min":34,"x_max":848,"o":"m 576 237 l 576 0 l 305 0 l 305 237 l 68 237 l 68 475 l 296 475 l 34 949 l 322 949 l 441 735 l 559 949 l 848 949 l 585 475 l 814 475 l 813 237 l 576 237 z "},"¦":{"ha":407,"x_min":68,"x_max":339,"o":"m 339 356 l 339 -136 l 68 -136 l 68 356 l 339 356 m 68 593 l 68 1085 l 339 1085 l 339 593 l 68 593 z "},"§":{"ha":949,"x_min":68,"x_max":882,"o":"m 509 508 l 441 509 l 441 441 l 509 441 l 509 508 m 170 373 l 68 475 l 68 932 l 186 1051 l 882 1051 l 882 814 l 339 814 l 339 746 l 661 745 l 780 627 l 780 576 l 882 475 l 882 17 l 763 -102 l 68 -102 l 68 136 l 610 136 l 610 203 l 288 203 l 170 322 l 170 373 z "},"¨":{"ha":882,"x_min":68,"x_max":814,"o":"m 543 1322 l 814 1322 l 814 1085 l 543 1085 l 543 1322 m 68 1322 l 339 1322 l 339 1085 l 68 1085 l 68 1322 z "},"©":{"ha":1017,"x_min":68,"x_max":949,"o":"m 68 958 l 127 1017 l 271 1017 l 271 899 l 203 899 l 203 526 l 271 526 l 271 407 l 127 407 l 68 466 l 68 958 m 364 949 l 652 949 l 712 890 l 712 763 l 576 764 l 576 831 l 441 831 l 441 593 l 576 594 l 576 662 l 712 662 l 712 534 l 652 475 l 364 475 l 305 534 l 305 890 l 364 949 m 949 466 l 890 407 l 746 407 l 746 526 l 814 526 l 814 899 l 746 899 l 746 1017 l 890 1017 l 949 958 l 949 466 z "},"ª":{"ha":1119,"x_min":0,"x_max":1017,"o":"m 136 0 q 0 136 0 0 l 0 882 q 136 1017 0 1017 l 882 1017 q 1017 882 1017 1017 l 1017 136 q 882 0 1017 0 l 136 0 m 882 17 q 1000 136 1000 17 l 1000 882 q 882 1000 1000 1000 l 136 1000 q 17 882 18 1000 l 17 136 q 136 17 18 17 l 882 17 z "},"«":{"ha":1085,"x_min":68,"x_max":1017,"o":"m 68 610 l 509 882 l 508 644 l 271 475 l 508 322 l 507 85 l 68 356 l 68 610 m 576 610 l 1017 882 l 1017 644 l 780 475 l 1017 322 l 1016 85 l 576 356 l 576 610 z "},"¬":{"ha":764,"x_min":127,"x_max":696,"o":"m 127 520 l 696 520 l 696 187 l 696 186 l 629 186 l 629 452 l 127 452 l 127 520 z "},"®":{"ha":1017,"x_min":68,"x_max":949,"o":"m 68 958 l 127 1017 l 271 1017 l 271 899 l 203 899 l 203 526 l 271 526 l 271 407 l 127 407 l 68 466 l 68 958 m 949 466 l 890 407 l 746 407 l 746 526 l 814 526 l 814 899 l 746 899 l 746 1017 l 890 1017 l 949 958 l 949 466 m 441 772 l 576 772 l 576 831 l 441 831 l 441 772 m 508 653 l 441 653 l 441 475 l 305 475 l 305 949 l 653 949 l 712 890 l 712 713 l 658 659 l 729 475 l 576 475 l 508 653 z "},"¯":{"ha":1119,"x_min":0,"x_max":1017,"o":"m 136 0 q 0 136 0 0 l 0 882 q 136 1017 0 1017 l 882 1017 q 1017 882 1017 1017 l 1017 136 q 882 0 1017 0 l 136 0 m 882 17 q 1000 136 1000 17 l 1000 882 q 882 1000 1000 1000 l 136 1000 q 17 882 18 1000 l 17 136 q 136 17 18 17 l 882 17 z "},"°":{"ha":553,"x_min":109,"x_max":486,"o":"m 298 930 q 198 889 239 930 q 156 789 156 848 q 197 689 156 730 q 298 648 239 648 q 397 689 357 648 q 438 789 438 730 q 397 889 438 848 q 298 930 356 930 m 298 978 q 431 923 376 978 q 486 789 486 867 q 430 656 486 712 q 296 601 374 601 q 163 656 217 601 q 109 789 109 711 q 164 923 109 868 q 298 978 219 978 z "},"±":{"ha":1119,"x_min":0,"x_max":1017,"o":"m 136 0 q 0 136 0 0 l 0 882 q 136 1017 0 1017 l 882 1017 q 1017 882 1017 1017 l 1017 136 q 882 0 1017 0 l 136 0 m 882 17 q 1000 136 1000 17 l 1000 882 q 882 1000 1000 1000 l 136 1000 q 17 882 18 1000 l 17 136 q 136 17 18 17 l 882 17 z "},"²":{"ha":1119,"x_min":0,"x_max":1017,"o":"m 136 0 q 0 136 0 0 l 0 882 q 136 1017 0 1017 l 882 1017 q 1017 882 1017 1017 l 1017 136 q 882 0 1017 0 l 136 0 m 882 17 q 1000 136 1000 17 l 1000 882 q 882 1000 1000 1000 l 136 1000 q 17 882 18 1000 l 17 136 q 136 17 18 17 l 882 17 z "},"³":{"ha":1119,"x_min":0,"x_max":1017,"o":"m 136 0 q 0 136 0 0 l 0 882 q 136 1017 0 1017 l 882 1017 q 1017 882 1017 1017 l 1017 136 q 882 0 1017 0 l 136 0 m 882 17 q 1000 136 1000 17 l 1000 882 q 882 1000 1000 1000 l 136 1000 q 17 882 18 1000 l 17 136 q 136 17 18 17 l 882 17 z "},"´":{"ha":610,"x_min":68,"x_max":543,"o":"m 339 1068 l 68 1068 l 271 1441 l 543 1441 l 339 1068 z "},"µ":{"ha":1119,"x_min":0,"x_max":1017,"o":"m 136 0 q 0 136 0 0 l 0 882 q 136 1017 0 1017 l 882 1017 q 1017 882 1017 1017 l 1017 136 q 882 0 1017 0 l 136 0 m 882 17 q 1000 136 1000 17 l 1000 882 q 882 1000 1000 1000 l 136 1000 q 17 882 18 1000 l 17 136 q 136 17 18 17 l 882 17 z "},"¶":{"ha":949,"x_min":68,"x_max":882,"o":"m 475 0 l 203 0 l 203 357 l 186 357 l 68 475 l 68 831 l 186 949 l 882 949 l 882 0 l 610 0 l 610 712 l 475 712 l 475 0 z "},"·":{"ha":407,"x_min":68,"x_max":339,"o":"m 68 593 l 339 593 l 339 356 l 68 356 l 68 593 z "},"¸":{"ha":543,"x_min":68,"x_max":475,"o":"m 68 -68 l 203 -67 l 203 68 l 475 68 l 475 -186 l 356 -304 l 68 -305 l 68 -68 z "},"¹":{"ha":1119,"x_min":0,"x_max":1017,"o":"m 136 0 q 0 136 0 0 l 0 882 q 136 1017 0 1017 l 882 1017 q 1017 882 1017 1017 l 1017 136 q 882 0 1017 0 l 136 0 m 882 17 q 1000 136 1000 17 l 1000 882 q 882 1000 1000 1000 l 136 1000 q 17 882 18 1000 l 17 136 q 136 17 18 17 l 882 17 z "},"º":{"ha":1119,"x_min":0,"x_max":1017,"o":"m 136 0 q 0 136 0 0 l 0 882 q 136 1017 0 1017 l 882 1017 q 1017 882 1017 1017 l 1017 136 q 882 0 1017 0 l 136 0 m 882 17 q 1000 136 1000 17 l 1000 882 q 882 1000 1000 1000 l 136 1000 q 17 882 18 1000 l 17 136 q 136 17 18 17 l 882 17 z "},"»":{"ha":1085,"x_min":68,"x_max":1017,"o":"m 1017 356 l 578 85 l 577 322 l 814 475 l 577 644 l 576 882 l 1017 610 l 1017 356 m 509 356 l 69 85 l 68 322 l 305 475 l 68 644 l 68 882 l 509 610 l 509 356 z "},"¼":{"ha":1119,"x_min":0,"x_max":1017,"o":"m 136 0 q 0 136 0 0 l 0 882 q 136 1017 0 1017 l 882 1017 q 1017 882 1017 1017 l 1017 136 q 882 0 1017 0 l 136 0 m 882 17 q 1000 136 1000 17 l 1000 882 q 882 1000 1000 1000 l 136 1000 q 17 882 18 1000 l 17 136 q 136 17 18 17 l 882 17 z "},"½":{"ha":1119,"x_min":0,"x_max":1017,"o":"m 136 0 q 0 136 0 0 l 0 882 q 136 1017 0 1017 l 882 1017 q 1017 882 1017 1017 l 1017 136 q 882 0 1017 0 l 136 0 m 882 17 q 1000 136 1000 17 l 1000 882 q 882 1000 1000 1000 l 136 1000 q 17 882 18 1000 l 17 136 q 136 17 18 17 l 882 17 z "},"¾":{"ha":1119,"x_min":0,"x_max":1017,"o":"m 136 0 q 0 136 0 0 l 0 882 q 136 1017 0 1017 l 882 1017 q 1017 882 1017 1017 l 1017 136 q 882 0 1017 0 l 136 0 m 882 17 q 1000 136 1000 17 l 1000 882 q 882 1000 1000 1000 l 136 1000 q 17 882 18 1000 l 17 136 q 136 17 18 17 l 882 17 z "},"¿":{"ha":949,"x_min":68,"x_max":882,"o":"m 339 356 l 339 237 l 882 237 l 882 0 l 186 0 l 68 119 l 68 475 l 186 593 l 441 593 l 441 644 l 712 644 l 712 475 l 593 356 l 339 356 m 712 712 l 441 712 l 441 949 l 712 949 l 712 712 z "},"À":{"ha":1085,"x_min":34,"x_max":1017,"o":"m 288 1441 l 559 1441 l 763 1068 l 492 1068 l 288 1441 m 522 712 l 250 712 l 322 949 l 729 949 l 1017 0 l 746 0 l 674 237 l 377 237 l 305 0 l 34 0 l 235 661 l 506 661 l 450 475 l 602 475 l 526 726 l 522 712 z "},"Á":{"ha":1085,"x_min":34,"x_max":1017,"o":"m 559 1068 l 288 1068 l 492 1441 l 763 1441 l 559 1068 m 522 712 l 250 712 l 322 949 l 729 949 l 1017 0 l 746 0 l 674 237 l 377 237 l 305 0 l 34 0 l 235 661 l 506 661 l 450 475 l 602 475 l 526 726 l 522 712 z "},"Â":{"ha":1085,"x_min":34,"x_max":1017,"o":"m 678 1441 l 882 1068 l 610 1068 l 526 1223 l 441 1068 l 170 1068 l 373 1441 l 678 1441 m 522 712 l 250 712 l 322 949 l 729 949 l 1017 0 l 746 0 l 674 237 l 377 237 l 305 0 l 34 0 l 235 661 l 506 661 l 450 475 l 602 475 l 526 726 l 522 712 z "},"Ã":{"ha":1085,"x_min":34,"x_max":1017,"o":"m 424 1136 l 424 1068 l 153 1068 l 153 1255 l 271 1373 l 627 1373 l 627 1441 l 899 1441 l 899 1255 l 780 1136 l 424 1136 m 522 712 l 250 712 l 322 949 l 729 949 l 1017 0 l 746 0 l 674 237 l 377 237 l 305 0 l 34 0 l 235 661 l 506 661 l 450 475 l 602 475 l 526 726 l 522 712 z "},"Ä":{"ha":1085,"x_min":34,"x_max":1017,"o":"m 627 1322 l 899 1322 l 899 1085 l 627 1085 l 627 1322 m 153 1322 l 424 1322 l 424 1085 l 153 1085 l 153 1322 m 522 712 l 250 712 l 322 949 l 729 949 l 1017 0 l 746 0 l 674 237 l 377 237 l 305 0 l 34 0 l 235 661 l 506 661 l 450 475 l 602 475 l 526 726 l 522 712 z "},"Å":{"ha":1085,"x_min":34,"x_max":1017,"o":"m 390 1322 l 661 1322 l 661 1085 l 390 1085 l 390 1322 m 522 712 l 250 712 l 322 949 l 729 949 l 1017 0 l 746 0 l 674 237 l 377 237 l 305 0 l 34 0 l 235 661 l 506 661 l 450 475 l 602 475 l 526 726 l 522 712 z "},"Æ":{"ha":1425,"x_min":34,"x_max":1357,"o":"m 610 237 l 377 237 l 305 0 l 34 0 l 235 661 l 506 661 l 450 475 l 602 475 l 526 726 l 522 712 l 250 712 l 322 949 l 1357 949 l 1356 712 l 882 712 l 882 593 l 1154 593 l 1153 356 l 882 356 l 882 237 l 1357 237 l 1356 0 l 610 0 l 610 237 z "},"Ç":{"ha":950,"x_min":68,"x_max":882,"o":"m 68 712 l 68 831 l 186 949 l 763 949 l 882 831 l 882 576 l 610 577 l 610 712 l 68 712 m 339 0 l 186 0 l 68 119 l 68 661 l 339 661 l 339 237 l 610 238 l 610 374 l 882 374 l 882 119 l 763 1 l 611 1 l 610 -186 l 492 -304 l 203 -305 l 203 -68 l 339 -67 l 339 0 z "},"È":{"ha":882,"x_min":68,"x_max":814,"o":"m 68 712 l 68 949 l 814 949 l 814 712 l 68 712 m 339 661 l 339 593 l 611 593 l 610 356 l 339 356 l 339 237 l 814 237 l 814 0 l 68 0 l 68 661 l 339 661 m 203 1441 l 475 1441 l 678 1068 l 407 1068 l 203 1441 z "},"É":{"ha":882,"x_min":68,"x_max":814,"o":"m 68 712 l 68 949 l 814 949 l 814 712 l 68 712 m 339 661 l 339 593 l 611 593 l 610 356 l 339 356 l 339 237 l 814 237 l 814 0 l 68 0 l 68 661 l 339 661 m 475 1068 l 203 1068 l 407 1441 l 678 1441 l 475 1068 z "},"Ê":{"ha":882,"x_min":68,"x_max":814,"o":"m 68 712 l 68 949 l 814 949 l 814 712 l 68 712 m 339 661 l 339 593 l 611 593 l 610 356 l 339 356 l 339 237 l 814 237 l 814 0 l 68 0 l 68 661 l 339 661 m 593 1441 l 797 1068 l 526 1068 l 441 1223 l 356 1068 l 85 1068 l 288 1441 l 593 1441 z "},"Ë":{"ha":882,"x_min":68,"x_max":814,"o":"m 68 712 l 68 949 l 814 949 l 814 712 l 68 712 m 339 661 l 339 593 l 611 593 l 610 356 l 339 356 l 339 237 l 814 237 l 814 0 l 68 0 l 68 661 l 339 661 m 543 1322 l 814 1322 l 814 1085 l 543 1085 l 543 1322 m 68 1322 l 339 1322 l 339 1085 l 68 1085 l 68 1322 z "},"Ì":{"ha":509,"x_min":-34,"x_max":441,"o":"m 339 0 l 68 0 l 68 949 l 339 949 l 339 0 m -34 1441 l 237 1441 l 441 1068 l 170 1068 l -34 1441 z "},"Í":{"ha":509,"x_min":-34,"x_max":441,"o":"m 339 0 l 68 0 l 68 949 l 339 949 l 339 0 m 237 1068 l -34 1068 l 170 1441 l 441 1441 l 237 1068 z "},"Î":{"ha":627,"x_min":-153,"x_max":559,"o":"m 339 0 l 68 0 l 68 949 l 339 949 l 339 0 m 356 1441 l 559 1068 l 288 1068 l 203 1223 l 119 1068 l -153 1068 l 51 1441 l 356 1441 z "},"Ï":{"ha":644,"x_min":-170,"x_max":576,"o":"m 339 0 l 68 0 l 68 949 l 339 949 l 339 0 m 305 1322 l 576 1322 l 576 1085 l 305 1085 l 305 1322 m -170 1322 l 102 1322 l 102 1085 l -170 1085 l -170 1322 z "},"Ð":{"ha":949,"x_min":68,"x_max":882,"o":"m 441 356 l 441 237 l 610 238 l 610 712 l 441 712 l 441 593 l 526 593 l 526 356 l 441 356 m 170 593 l 170 949 l 763 949 l 882 831 l 882 119 l 763 1 l 170 0 l 170 356 l 68 356 l 68 593 l 170 593 z "},"Ñ":{"ha":1153,"x_min":68,"x_max":1085,"o":"m 68 712 l 68 949 l 492 949 l 814 368 l 814 949 l 1085 949 l 1085 0 l 729 0 l 339 712 l 68 712 m 339 661 l 339 0 l 68 0 l 68 661 l 339 661 m 475 1136 l 475 1068 l 203 1068 l 203 1255 l 322 1373 l 678 1373 l 678 1441 l 949 1441 l 949 1255 l 831 1136 l 475 1136 z "},"Ò":{"ha":949,"x_min":68,"x_max":882,"o":"m 68 712 l 68 831 l 186 949 l 763 949 l 882 831 l 882 119 l 763 1 l 186 0 l 68 119 l 68 661 l 339 661 l 339 237 l 610 238 l 610 712 l 68 712 m 237 1441 l 509 1441 l 712 1068 l 441 1068 l 237 1441 z "},"Ó":{"ha":949,"x_min":68,"x_max":882,"o":"m 68 712 l 68 831 l 186 949 l 763 949 l 882 831 l 882 119 l 763 1 l 186 0 l 68 119 l 68 661 l 339 661 l 339 237 l 610 238 l 610 712 l 68 712 m 509 1068 l 237 1068 l 441 1441 l 712 1441 l 509 1068 z "},"Ô":{"ha":949,"x_min":68,"x_max":882,"o":"m 68 712 l 68 831 l 186 949 l 763 949 l 882 831 l 882 119 l 763 1 l 186 0 l 68 119 l 68 661 l 339 661 l 339 237 l 610 238 l 610 712 l 68 712 m 627 1441 l 831 1068 l 559 1068 l 475 1223 l 390 1068 l 119 1068 l 322 1441 l 627 1441 z "},"Õ":{"ha":949,"x_min":68,"x_max":882,"o":"m 68 712 l 68 831 l 186 949 l 763 949 l 882 831 l 882 119 l 763 1 l 186 0 l 68 119 l 68 661 l 339 661 l 339 237 l 610 238 l 610 712 l 68 712 m 373 1136 l 373 1068 l 102 1068 l 102 1255 l 220 1373 l 576 1373 l 576 1441 l 848 1441 l 848 1255 l 729 1136 l 373 1136 z "},"Ö":{"ha":949,"x_min":68,"x_max":882,"o":"m 68 712 l 68 831 l 186 949 l 763 949 l 882 831 l 882 119 l 763 1 l 186 0 l 68 119 l 68 661 l 339 661 l 339 237 l 610 238 l 610 712 l 68 712 m 576 1322 l 848 1322 l 848 1085 l 576 1085 l 576 1322 m 102 1322 l 373 1322 l 373 1085 l 102 1085 l 102 1322 z "},"×":{"ha":882,"x_min":68,"x_max":814,"o":"m 441 735 l 526 882 l 814 882 l 585 475 l 814 68 l 526 68 l 441 214 l 356 68 l 68 68 l 297 475 l 68 882 l 356 882 l 441 735 z "},"Ø":{"ha":949,"x_min":68,"x_max":882,"o":"m 610 475 l 339 237 l 610 238 l 610 475 m 610 712 l 68 712 l 68 831 l 186 949 l 763 949 l 882 831 l 882 119 l 763 1 l 186 0 l 68 119 l 68 661 l 339 661 l 339 475 l 610 712 z "},"Ù":{"ha":949,"x_min":68,"x_max":882,"o":"m 610 949 l 882 949 l 882 119 l 763 1 l 186 0 l 68 119 l 68 949 l 339 949 l 339 237 l 610 238 l 610 949 m 237 1441 l 509 1441 l 712 1068 l 441 1068 l 237 1441 z "},"Ú":{"ha":949,"x_min":68,"x_max":882,"o":"m 610 949 l 882 949 l 882 119 l 763 1 l 186 0 l 68 119 l 68 949 l 339 949 l 339 237 l 610 238 l 610 949 m 509 1068 l 237 1068 l 441 1441 l 712 1441 l 509 1068 z "},"Û":{"ha":949,"x_min":68,"x_max":882,"o":"m 610 949 l 882 949 l 882 119 l 763 1 l 186 0 l 68 119 l 68 949 l 339 949 l 339 237 l 610 238 l 610 949 m 627 1441 l 831 1068 l 559 1068 l 475 1223 l 390 1068 l 119 1068 l 322 1441 l 627 1441 z "},"Ü":{"ha":949,"x_min":68,"x_max":882,"o":"m 610 949 l 882 949 l 882 119 l 763 1 l 186 0 l 68 119 l 68 949 l 339 949 l 339 237 l 610 238 l 610 949 m 576 1322 l 848 1322 l 848 1085 l 576 1085 l 576 1322 m 102 1322 l 373 1322 l 373 1085 l 102 1085 l 102 1322 z "},"Ý":{"ha":916,"x_min":34,"x_max":848,"o":"m 584 473 l 576 459 l 576 0 l 305 0 l 305 459 l 34 949 l 322 949 l 584 473 m 466 780 l 559 949 l 848 949 l 609 519 l 466 780 m 475 1068 l 203 1068 l 407 1441 l 678 1441 l 475 1068 z "},"Þ":{"ha":949,"x_min":68,"x_max":882,"o":"m 339 424 l 610 425 l 610 543 l 339 543 l 339 424 m 339 780 l 763 780 l 882 661 l 882 306 l 763 187 l 339 186 l 339 0 l 68 0 l 68 949 l 339 949 l 339 780 z "},"ß":{"ha":949,"x_min":68,"x_max":882,"o":"m 339 0 l 68 0 l 68 831 l 187 949 l 763 949 l 882 831 l 882 543 l 814 475 l 882 407 l 882 119 l 763 1 l 475 1 l 475 238 l 610 238 l 610 356 l 475 356 l 475 594 l 610 594 l 610 712 l 339 712 l 339 0 z "},"à":{"ha":1085,"x_min":34,"x_max":1017,"o":"m 377 237 l 305 0 l 34 0 l 322 949 l 729 949 l 1017 0 l 746 0 l 674 237 l 377 237 m 526 726 l 450 475 l 602 475 l 526 726 m 288 1441 l 559 1441 l 763 1068 l 492 1068 l 288 1441 z "},"á":{"ha":1085,"x_min":34,"x_max":1017,"o":"m 377 237 l 305 0 l 34 0 l 322 949 l 729 949 l 1017 0 l 746 0 l 674 237 l 377 237 m 526 726 l 450 475 l 602 475 l 526 726 m 559 1068 l 288 1068 l 492 1441 l 763 1441 l 559 1068 z "},"â":{"ha":1085,"x_min":34,"x_max":1017,"o":"m 377 237 l 305 0 l 34 0 l 322 949 l 729 949 l 1017 0 l 746 0 l 674 237 l 377 237 m 526 726 l 450 475 l 602 475 l 526 726 m 678 1441 l 882 1068 l 610 1068 l 526 1223 l 441 1068 l 170 1068 l 373 1441 l 678 1441 z "},"ã":{"ha":1085,"x_min":34,"x_max":1017,"o":"m 377 237 l 305 0 l 34 0 l 322 949 l 729 949 l 1017 0 l 746 0 l 674 237 l 377 237 m 526 726 l 450 475 l 602 475 l 526 726 m 424 1136 l 424 1068 l 153 1068 l 153 1255 l 271 1373 l 627 1373 l 627 1441 l 899 1441 l 899 1255 l 780 1136 l 424 1136 z "},"ä":{"ha":1085,"x_min":34,"x_max":1017,"o":"m 377 237 l 305 0 l 34 0 l 322 949 l 729 949 l 1017 0 l 746 0 l 674 237 l 377 237 m 526 726 l 450 475 l 602 475 l 526 726 m 627 1322 l 899 1322 l 899 1085 l 627 1085 l 627 1322 m 153 1322 l 424 1322 l 424 1085 l 153 1085 l 153 1322 z "},"å":{"ha":1085,"x_min":34,"x_max":1017,"o":"m 377 237 l 305 0 l 34 0 l 322 949 l 729 949 l 1017 0 l 746 0 l 674 237 l 377 237 m 526 726 l 450 475 l 602 475 l 526 726 m 390 1322 l 661 1322 l 661 1085 l 390 1085 l 390 1322 z "},"æ":{"ha":1424,"x_min":34,"x_max":1356,"o":"m 526 726 l 450 475 l 602 475 l 526 726 m 610 237 l 377 237 l 305 0 l 34 0 l 322 949 l 1356 949 l 1356 712 l 881 712 l 881 593 l 1153 593 l 1152 356 l 882 356 l 882 237 l 1356 237 l 1356 0 l 610 0 l 610 237 z "},"ç":{"ha":950,"x_min":68,"x_max":882,"o":"m 339 0 l 186 0 l 68 119 l 68 831 l 186 949 l 763 949 l 882 831 l 882 576 l 610 577 l 610 712 l 339 712 l 339 237 l 610 238 l 610 374 l 882 374 l 882 119 l 763 1 l 611 1 l 610 -186 l 492 -304 l 203 -305 l 203 -68 l 339 -67 l 339 0 z "},"è":{"ha":882,"x_min":68,"x_max":814,"o":"m 203 1441 l 475 1441 l 678 1068 l 407 1068 l 203 1441 m 68 949 l 814 949 l 814 712 l 339 712 l 339 593 l 611 593 l 610 356 l 339 356 l 339 237 l 814 237 l 814 0 l 68 0 l 68 949 z "},"é":{"ha":882,"x_min":68,"x_max":814,"o":"m 475 1068 l 203 1068 l 407 1441 l 678 1441 l 475 1068 m 68 949 l 814 949 l 814 712 l 339 712 l 339 593 l 611 593 l 610 356 l 339 356 l 339 237 l 814 237 l 814 0 l 68 0 l 68 949 z "},"ê":{"ha":882,"x_min":68,"x_max":814,"o":"m 593 1441 l 797 1068 l 526 1068 l 441 1223 l 356 1068 l 85 1068 l 288 1441 l 593 1441 m 68 949 l 814 949 l 814 712 l 339 712 l 339 593 l 611 593 l 610 356 l 339 356 l 339 237 l 814 237 l 814 0 l 68 0 l 68 949 z "},"ë":{"ha":882,"x_min":68,"x_max":814,"o":"m 543 1322 l 814 1322 l 814 1085 l 543 1085 l 543 1322 m 68 1322 l 339 1322 l 339 1085 l 68 1085 l 68 1322 m 68 949 l 814 949 l 814 712 l 339 712 l 339 593 l 611 593 l 610 356 l 339 356 l 339 237 l 814 237 l 814 0 l 68 0 l 68 949 z "},"ì":{"ha":509,"x_min":-34,"x_max":441,"o":"m 339 0 l 68 0 l 68 949 l 339 949 l 339 0 m -34 1441 l 237 1441 l 441 1068 l 170 1068 l -34 1441 z "},"í":{"ha":509,"x_min":-34,"x_max":441,"o":"m 339 0 l 68 0 l 68 949 l 339 949 l 339 0 m 237 1068 l -34 1068 l 170 1441 l 441 1441 l 237 1068 z "},"î":{"ha":627,"x_min":-153,"x_max":559,"o":"m 339 0 l 68 0 l 68 949 l 339 949 l 339 0 m 356 1441 l 559 1068 l 288 1068 l 203 1223 l 119 1068 l -153 1068 l 51 1441 l 356 1441 z "},"ï":{"ha":644,"x_min":-170,"x_max":576,"o":"m 339 0 l 68 0 l 68 949 l 339 949 l 339 0 m 305 1322 l 576 1322 l 576 1085 l 305 1085 l 305 1322 m -170 1322 l 102 1322 l 102 1085 l -170 1085 l -170 1322 z "},"ð":{"ha":949,"x_min":68,"x_max":882,"o":"m 441 356 l 441 237 l 610 238 l 610 712 l 441 712 l 441 593 l 526 593 l 526 356 l 441 356 m 170 593 l 170 949 l 763 949 l 882 831 l 882 119 l 763 1 l 170 0 l 170 356 l 68 356 l 68 593 l 170 593 z "},"ñ":{"ha":1153,"x_min":68,"x_max":1085,"o":"m 339 705 l 339 0 l 68 0 l 68 949 l 492 949 l 814 368 l 814 949 l 1085 949 l 1085 0 l 729 0 l 339 705 m 475 1136 l 475 1068 l 203 1068 l 203 1255 l 322 1373 l 678 1373 l 678 1441 l 949 1441 l 949 1255 l 831 1136 l 475 1136 z "},"ò":{"ha":949,"x_min":68,"x_max":882,"o":"m 882 119 l 763 1 l 186 0 l 68 119 l 68 831 l 186 949 l 763 949 l 882 831 l 882 119 m 610 712 l 339 712 l 339 237 l 610 238 l 610 712 m 237 1441 l 509 1441 l 712 1068 l 441 1068 l 237 1441 z "},"ó":{"ha":949,"x_min":68,"x_max":882,"o":"m 882 119 l 763 1 l 186 0 l 68 119 l 68 831 l 186 949 l 763 949 l 882 831 l 882 119 m 610 712 l 339 712 l 339 237 l 610 238 l 610 712 m 509 1068 l 237 1068 l 441 1441 l 712 1441 l 509 1068 z "},"ô":{"ha":949,"x_min":68,"x_max":882,"o":"m 882 119 l 763 1 l 186 0 l 68 119 l 68 831 l 186 949 l 763 949 l 882 831 l 882 119 m 610 712 l 339 712 l 339 237 l 610 238 l 610 712 m 627 1441 l 831 1068 l 559 1068 l 475 1223 l 390 1068 l 119 1068 l 322 1441 l 627 1441 z "},"õ":{"ha":949,"x_min":68,"x_max":882,"o":"m 882 119 l 763 1 l 186 0 l 68 119 l 68 831 l 186 949 l 763 949 l 882 831 l 882 119 m 610 712 l 339 712 l 339 237 l 610 238 l 610 712 m 373 1136 l 373 1068 l 102 1068 l 102 1255 l 220 1373 l 576 1373 l 576 1441 l 848 1441 l 848 1255 l 729 1136 l 373 1136 z "},"ö":{"ha":949,"x_min":68,"x_max":882,"o":"m 882 119 l 763 1 l 186 0 l 68 119 l 68 831 l 186 949 l 763 949 l 882 831 l 882 119 m 610 712 l 339 712 l 339 237 l 610 238 l 610 712 m 576 1322 l 848 1322 l 848 1085 l 576 1085 l 576 1322 m 102 1322 l 373 1322 l 373 1085 l 102 1085 l 102 1322 z "},"÷":{"ha":882,"x_min":68,"x_max":814,"o":"m 68 356 l 68 593 l 814 593 l 813 356 l 68 356 m 305 288 l 576 288 l 576 51 l 305 51 l 305 288 m 305 899 l 576 899 l 576 661 l 305 661 l 305 899 z "},"ø":{"ha":949,"x_min":68,"x_max":882,"o":"m 610 712 l 339 712 l 339 475 l 610 712 m 339 237 l 610 238 l 610 475 l 339 237 m 882 119 l 763 1 l 186 0 l 68 119 l 68 831 l 186 949 l 763 949 l 882 831 l 882 119 z "},"ù":{"ha":949,"x_min":68,"x_max":882,"o":"m 610 949 l 882 949 l 882 119 l 763 1 l 186 0 l 68 119 l 68 949 l 339 949 l 339 237 l 610 238 l 610 949 m 237 1441 l 509 1441 l 712 1068 l 441 1068 l 237 1441 z "},"ú":{"ha":949,"x_min":68,"x_max":882,"o":"m 610 949 l 882 949 l 882 119 l 763 1 l 186 0 l 68 119 l 68 949 l 339 949 l 339 237 l 610 238 l 610 949 m 509 1068 l 237 1068 l 441 1441 l 712 1441 l 509 1068 z "},"û":{"ha":949,"x_min":68,"x_max":882,"o":"m 610 949 l 882 949 l 882 119 l 763 1 l 186 0 l 68 119 l 68 949 l 339 949 l 339 237 l 610 238 l 610 949 m 627 1441 l 831 1068 l 559 1068 l 475 1223 l 390 1068 l 119 1068 l 322 1441 l 627 1441 z "},"ü":{"ha":949,"x_min":68,"x_max":882,"o":"m 610 949 l 882 949 l 882 119 l 763 1 l 186 0 l 68 119 l 68 949 l 339 949 l 339 237 l 610 238 l 610 949 m 576 1322 l 848 1322 l 848 1085 l 576 1085 l 576 1322 m 102 1322 l 373 1322 l 373 1085 l 102 1085 l 102 1322 z "},"ý":{"ha":916,"x_min":34,"x_max":848,"o":"m 305 459 l 34 949 l 322 949 l 441 735 l 559 949 l 848 949 l 576 459 l 576 0 l 305 0 l 305 459 m 475 1068 l 203 1068 l 407 1441 l 678 1441 l 475 1068 z "},"þ":{"ha":949,"x_min":68,"x_max":882,"o":"m 339 424 l 610 425 l 610 543 l 339 543 l 339 424 m 339 780 l 763 780 l 882 661 l 882 306 l 763 187 l 339 186 l 339 0 l 68 0 l 68 949 l 339 949 l 339 780 z "},"ÿ":{"ha":916,"x_min":34,"x_max":848,"o":"m 305 459 l 34 949 l 322 949 l 441 735 l 559 949 l 848 949 l 576 459 l 576 0 l 305 0 l 305 459 m 543 1322 l 814 1322 l 814 1085 l 543 1085 l 543 1322 m 68 1322 l 339 1322 l 339 1085 l 68 1085 l 68 1322 z "},"ı":{"ha":407,"x_min":68,"x_max":339,"o":"m 339 0 l 68 0 l 68 949 l 339 949 l 339 0 z "},"ˆ":{"ha":848,"x_min":68,"x_max":780,"o":"m 576 1441 l 780 1068 l 509 1068 l 424 1223 l 339 1068 l 68 1068 l 271 1441 l 576 1441 z "},"ˇ":{"ha":848,"x_min":68,"x_max":780,"o":"m 271 1068 l 68 1441 l 339 1441 l 424 1286 l 509 1441 l 780 1441 l 576 1068 l 271 1068 z "},"ˉ":{"ha":658,"x_min":240,"x_max":590,"o":"m 240 810 l 240 895 l 590 895 l 590 810 l 240 810 z "},"˘":{"ha":680,"x_min":216,"x_max":612,"o":"m 216 915 l 251 915 q 302 842 262 865 q 415 819 341 819 q 528 842 489 819 q 578 915 566 865 l 612 915 q 549 778 599 825 q 415 732 498 732 q 281 779 332 732 q 216 915 231 825 z "},"˙":{"ha":407,"x_min":68,"x_max":339,"o":"m 68 1322 l 339 1322 l 339 1085 l 68 1085 l 68 1322 z "},"˚":{"ha":407,"x_min":68,"x_max":339,"o":"m 68 1322 l 339 1322 l 339 1085 l 68 1085 l 68 1322 z "},"˛":{"ha":635,"x_min":318,"x_max":568,"o":"m 502 0 q 427 -81 454 -42 q 400 -157 400 -120 q 418 -208 400 -189 q 468 -227 437 -227 q 515 -217 495 -227 q 549 -184 535 -206 l 568 -195 q 506 -260 543 -237 q 425 -283 469 -283 q 348 -259 378 -283 q 318 -198 318 -235 q 359 -92 318 -146 q 469 0 400 -37 l 502 0 z "},"˜":{"ha":882,"x_min":68,"x_max":814,"o":"m 339 1136 l 339 1068 l 68 1068 l 68 1255 l 186 1373 l 543 1373 l 543 1441 l 814 1441 l 814 1255 l 695 1136 l 339 1136 z "},"˝":{"ha":682,"x_min":215,"x_max":614,"o":"m 215 732 l 313 917 q 343 960 329 947 q 375 972 358 972 q 408 959 394 972 q 421 927 421 945 q 414 903 421 916 q 393 876 407 890 l 254 732 l 215 732 m 408 732 l 506 917 q 537 960 522 947 q 568 972 551 972 q 601 959 587 972 q 614 927 614 945 q 607 903 614 916 q 587 876 600 890 l 448 732 l 408 732 z "},"–":{"ha":882,"x_min":68,"x_max":814,"o":"m 68 356 l 68 593 l 814 593 l 813 356 l 68 356 z "},"—":{"ha":882,"x_min":68,"x_max":814,"o":"m 68 356 l 68 593 l 814 593 l 813 356 l 68 356 z "},"‘":{"ha":407,"x_min":68,"x_max":339,"o":"m 339 576 l 68 576 l 68 831 l 186 949 l 339 949 l 339 576 z "},"’":{"ha":407,"x_min":68,"x_max":339,"o":"m 68 949 l 339 949 l 339 695 l 220 576 l 68 576 l 68 949 z "},"‚":{"ha":407,"x_min":68,"x_max":339,"o":"m 68 237 l 339 237 l 339 -17 l 220 -136 l 68 -136 l 68 237 z "},"“":{"ha":746,"x_min":68,"x_max":678,"o":"m 678 576 l 407 576 l 407 831 l 526 949 l 678 949 l 678 576 m 339 576 l 68 576 l 68 831 l 186 949 l 339 949 l 339 576 z "},"”":{"ha":746,"x_min":68,"x_max":678,"o":"m 68 949 l 339 949 l 339 695 l 220 576 l 68 576 l 68 949 m 407 949 l 678 949 l 678 695 l 559 576 l 407 576 l 407 949 z "},"„":{"ha":746,"x_min":68,"x_max":678,"o":"m 68 237 l 339 237 l 339 -17 l 220 -136 l 68 -136 l 68 237 m 407 237 l 678 237 l 678 -17 l 559 -136 l 407 -136 l 407 237 z "},"†":{"ha":776,"x_min":116,"x_max":708,"o":"m 397 693 q 361 814 392 759 q 322 901 322 882 q 347 955 322 935 q 412 975 371 975 q 476 956 450 975 q 501 907 501 937 q 464 814 501 886 q 427 693 433 757 q 547 730 492 699 q 634 768 615 768 q 688 744 667 768 q 708 679 708 720 q 689 615 708 640 q 640 589 671 589 q 548 627 618 589 q 427 665 490 658 q 501 477 432 546 q 425 -183 429 165 l 399 -183 q 322 477 395 165 q 397 665 391 546 q 277 628 332 659 q 189 589 208 589 q 136 614 156 589 q 116 679 116 638 q 135 743 116 718 q 183 768 153 768 q 276 730 205 768 q 397 693 334 699 z "},"‡":{"ha":775,"x_min":115,"x_max":707,"o":"m 426 126 q 547 165 490 134 q 640 202 618 202 q 689 177 670 202 q 707 113 707 151 q 687 47 707 72 q 633 23 667 23 q 546 62 614 23 q 426 98 491 93 q 463 -23 432 35 q 500 -116 500 -94 q 475 -164 500 -146 q 411 -183 450 -183 q 346 -163 370 -183 q 321 -110 321 -143 q 360 -22 321 -91 q 397 98 391 33 q 275 61 333 92 q 182 23 204 23 q 134 48 153 23 q 115 113 115 74 q 135 178 115 153 q 189 202 155 202 q 276 163 208 202 q 397 126 332 133 q 321 396 391 279 q 397 665 391 512 q 276 628 332 659 q 189 589 208 589 q 135 614 155 589 q 115 679 115 638 q 134 743 115 718 q 182 768 153 768 q 275 730 204 768 q 397 693 333 699 q 360 814 391 759 q 321 901 321 882 q 346 955 321 935 q 411 975 370 975 q 475 956 450 975 q 500 907 500 937 q 463 814 500 886 q 426 693 432 757 q 546 730 491 699 q 633 768 614 768 q 687 744 667 768 q 707 679 707 720 q 689 615 707 640 q 640 589 670 589 q 547 627 618 589 q 426 665 490 658 q 500 396 431 512 q 426 126 431 279 z "},"•":{"ha":684,"x_min":214,"x_max":616,"o":"m 214 487 q 273 629 214 570 q 416 687 332 687 q 557 628 498 687 q 616 487 616 570 q 556 345 616 404 q 414 286 497 286 q 273 345 331 286 q 214 487 214 404 z "},"…":{"ha":1085,"x_min":68,"x_max":1017,"o":"m 68 237 l 339 237 l 339 0 l 68 0 l 68 237 m 407 237 l 678 237 l 678 0 l 407 0 l 407 237 m 746 237 l 1017 237 l 1017 0 l 746 0 l 746 237 z "},"‹":{"ha":882,"x_min":68,"x_max":814,"o":"m 68 610 l 814 882 l 814 644 l 371 484 l 814 322 l 813 85 l 68 356 l 68 610 z "},"›":{"ha":882,"x_min":68,"x_max":814,"o":"m 814 356 l 69 85 l 68 322 l 511 484 l 68 644 l 68 882 l 814 610 l 814 356 z "},"⁄":{"ha":916,"x_min":34,"x_max":848,"o":"m 559 949 l 848 949 l 322 0 l 34 0 l 559 949 z "},"₣":{"ha":882,"x_min":68,"x_max":814,"o":"m 170 712 l 170 949 l 814 949 l 814 712 l 170 712 m 170 305 l 170 661 l 441 661 l 441 593 l 611 593 l 610 356 l 441 356 l 441 305 l 611 305 l 610 68 l 441 68 l 441 0 l 170 0 l 170 68 l 68 68 l 68 305 l 170 305 z "},"₤":{"ha":882,"x_min":68,"x_max":814,"o":"m 170 356 l 68 356 l 68 593 l 170 593 l 170 831 l 288 949 l 712 949 l 814 848 l 814 712 l 441 712 l 441 593 l 610 593 l 610 356 l 441 356 l 441 237 l 814 237 l 814 0 l 68 0 l 68 237 l 170 237 l 170 356 z "},"₧":{"ha":949,"x_min":68,"x_max":882,"o":"m 170 305 l 170 661 l 441 661 l 441 593 l 610 594 l 610 712 l 170 712 l 170 949 l 763 949 l 882 831 l 882 475 l 763 357 l 441 356 l 441 305 l 611 305 l 610 68 l 441 68 l 441 0 l 170 0 l 170 68 l 68 68 l 68 305 l 170 305 z "},"€":{"ha":949,"x_min":68,"x_max":882,"o":"m 170 593 l 170 831 l 288 949 l 763 949 l 882 831 l 882 712 l 441 712 l 441 593 l 814 593 l 813 356 l 441 356 l 441 237 l 882 237 l 882 119 l 763 1 l 288 0 l 170 119 l 170 356 l 68 356 l 68 593 l 170 593 z "},"№":{"ha":1119,"x_min":68,"x_max":1051,"o":"m 68 831 l 68 949 l 280 949 l 441 659 l 441 949 l 576 949 l 576 475 l 399 475 l 203 831 l 68 831 m 203 806 l 203 475 l 68 475 l 68 806 l 203 806 m 1051 534 l 992 475 l 704 475 l 644 534 l 644 890 l 703 949 l 992 949 l 1051 890 l 1051 534 m 916 831 l 780 831 l 780 593 l 916 594 l 916 831 z "},"™":{"ha":1153,"x_min":68,"x_max":1085,"o":"m 68 831 l 68 949 l 475 949 l 475 831 l 68 831 m 339 806 l 339 475 l 203 475 l 203 806 l 339 806 m 1085 949 l 1085 475 l 949 475 l 949 670 l 890 475 l 738 475 l 678 670 l 678 475 l 543 475 l 543 949 l 729 949 l 814 670 l 899 949 l 1085 949 z "},"∂":{"ha":1119,"x_min":0,"x_max":1017,"o":"m 136 0 q 0 136 0 0 l 0 882 q 136 1017 0 1017 l 882 1017 q 1017 882 1017 1017 l 1017 136 q 882 0 1017 0 l 136 0 m 882 17 q 1000 136 1000 17 l 1000 882 q 882 1000 1000 1000 l 136 1000 q 17 882 18 1000 l 17 136 q 136 17 18 17 l 882 17 z "},"∆":{"ha":1119,"x_min":0,"x_max":1017,"o":"m 136 0 q 0 136 0 0 l 0 882 q 136 1017 0 1017 l 882 1017 q 1017 882 1017 1017 l 1017 136 q 882 0 1017 0 l 136 0 m 882 17 q 1000 136 1000 17 l 1000 882 q 882 1000 1000 1000 l 136 1000 q 17 882 18 1000 l 17 136 q 136 17 18 17 l 882 17 z "},"∏":{"ha":1119,"x_min":0,"x_max":1017,"o":"m 136 0 q 0 136 0 0 l 0 882 q 136 1017 0 1017 l 882 1017 q 1017 882 1017 1017 l 1017 136 q 882 0 1017 0 l 136 0 m 882 17 q 1000 136 1000 17 l 1000 882 q 882 1000 1000 1000 l 136 1000 q 17 882 18 1000 l 17 136 q 136 17 18 17 l 882 17 z "},"∑":{"ha":1119,"x_min":0,"x_max":1017,"o":"m 136 0 q 0 136 0 0 l 0 882 q 136 1017 0 1017 l 882 1017 q 1017 882 1017 1017 l 1017 136 q 882 0 1017 0 l 136 0 m 882 17 q 1000 136 1000 17 l 1000 882 q 882 1000 1000 1000 l 136 1000 q 17 882 18 1000 l 17 136 q 136 17 18 17 l 882 17 z "},"−":{"ha":882,"x_min":68,"x_max":814,"o":"m 68 356 l 68 593 l 814 593 l 813 356 l 68 356 z "},"≈":{"ha":1119,"x_min":0,"x_max":1017,"o":"m 136 0 q 0 136 0 0 l 0 882 q 136 1017 0 1017 l 882 1017 q 1017 882 1017 1017 l 1017 136 q 882 0 1017 0 l 136 0 m 882 17 q 1000 136 1000 17 l 1000 882 q 882 1000 1000 1000 l 136 1000 q 17 882 18 1000 l 17 136 q 136 17 18 17 l 882 17 z "},"≤":{"ha":1119,"x_min":0,"x_max":1017,"o":"m 136 0 q 0 136 0 0 l 0 882 q 136 1017 0 1017 l 882 1017 q 1017 882 1017 1017 l 1017 136 q 882 0 1017 0 l 136 0 m 882 17 q 1000 136 1000 17 l 1000 882 q 882 1000 1000 1000 l 136 1000 q 17 882 18 1000 l 17 136 q 136 17 18 17 l 882 17 z "},"≥":{"ha":1119,"x_min":0,"x_max":1017,"o":"m 136 0 q 0 136 0 0 l 0 882 q 136 1017 0 1017 l 882 1017 q 1017 882 1017 1017 l 1017 136 q 882 0 1017 0 l 136 0 m 882 17 q 1000 136 1000 17 l 1000 882 q 882 1000 1000 1000 l 136 1000 q 17 882 18 1000 l 17 136 q 136 17 18 17 l 882 17 z "},"":{"ha":68,"x_min":0,"x_max":0,"o":""},"":{"ha":68,"x_min":0,"x_max":0,"o":""},"Œ":{"ha":1424,"x_min":68,"x_max":1356,"o":"m 610 712 l 68 712 l 68 831 l 186 949 l 1356 949 l 1356 712 l 882 712 l 882 593 l 1153 593 l 1152 356 l 882 356 l 882 237 l 1356 237 l 1356 0 l 186 0 l 68 119 l 68 661 l 339 661 l 339 237 l 610 237 l 610 712 z "},"œ":{"ha":1424,"x_min":68,"x_max":1356,"o":"m 610 712 l 339 712 l 339 237 l 610 238 l 610 712 m 882 356 l 882 237 l 1356 237 l 1356 0 l 186 0 l 68 119 l 68 831 l 186 949 l 1356 949 l 1356 712 l 882 712 l 882 593 l 1153 593 l 1152 356 l 882 356 z "},"‰":{"ha":1628,"x_min":68,"x_max":1560,"o":"m 475 712 l 340 712 l 339 593 l 474 594 l 475 712 m 882 356 l 747 356 l 747 237 l 881 238 l 882 356 m 1289 356 l 1154 356 l 1154 237 l 1288 238 l 1289 356 m 593 0 l 539 54 l 509 0 l 220 0 l 418 357 l 186 357 l 68 475 l 68 831 l 186 949 l 627 949 l 704 873 l 746 949 l 1034 949 l 837 593 l 1441 593 l 1560 475 l 1559 119 l 1440 1 l 593 0 z "}}}
